:SAMPLES-PER-SECOND 30
:FULLY-SPECIFIED
:DEGREES
394
root  -4.88514 34.5252 -1.72938 1.51054 60.0654 -7.61413
LeftUpLeg  -12.87 12.8754 -0.714833
LeftLeg  9.22074 11.0094 1.05991
LeftFoot  1.02026 -0.00157104 0.212738
LeftToes  -7.17575 6.91067e-007 1.07128e-007
Spine  3.52656 3.57383 -2.36826
Spine1  6.61183 7.52345 -4.78726
RightShoulder  0.12769 15.1959 -2.2762
RightArm  -6.93905 8.93238 89.2504
RightForeArm  35.8023 10.5424 1.874
RightHand  0.367464 -4.43931 -9.07569
LeftShoulder1  0.0226804 -9.3148 0.228797
LeftArm  18.4041 2.97437 -74.7376
LeftForeArm  16.4337 -65.5919 -22.9623
LeftHand  1.33448 10.6523 13.8623
HEad  -10.3976 -32.0954 10.1284
RightUpLeg  -17.4499 -18.3336 -1.17734
RightLeg  13.1895 3.74075 0.627068
RightFoot  14.0173 -0.0716463 0.960282
RightToes  -37.7901 -0.185802 -0.290353
395
root  -4.74308 34.4618 -1.59609 2.53249 60.9651 -6.22237
LeftUpLeg  -12.7444 13.0682 -1.31043
LeftLeg  9.90993 9.86675 1.07021
LeftFoot  0.505497 -0.000466917 0.105837
LeftToes  -7.8223 6.91067e-007 1.07128e-007
Spine  3.32574 3.89318 -2.51395
Spine1  6.11764 8.25316 -5.18977
RightShoulder  0.16962 16.0043 -1.66084
RightArm  -18.5709 10.3684 88.0664
RightForeArm  42.8212 3.87718 0.67675
RightHand  0.453487 -8.68832 -5.59009
LeftShoulder1  0.0157256 -8.79268 0.116304
LeftArm  27.2627 0.445695 -74.2121
LeftForeArm  33.3545 -73.0589 -35.6398
LeftHand  0.691117 8.87109 8.51527
HEad  -10.1492 -34.1661 10.393
RightUpLeg  -16.4943 -18.5769 -2.12657
RightLeg  13.6599 1.52581 0.269233
RightFoot  11.9197 -0.000288418 0.380289
RightToes  -38.181 -0.185907 -0.290449
396
root  -4.58443 34.4243 -1.44643 3.55614 61.9115 -4.77688
LeftUpLeg  -12.285 12.9838 -1.84663
LeftLeg  10.0982 9.04809 1.01204
LeftFoot  0.248205 -0.000125715 0.0580319
LeftToes  -8.00373 6.91067e-007 1.07128e-007
Spine  3.01471 4.09664 -2.70295
Spine1  5.44344 8.69431 -5.62598
RightShoulder  0.194349 17.0046 -1.04352
RightArm  -23.8025 10.0837 86.2629
RightForeArm  42.7742 0.151708 0.0235231
RightHand  0.598841 -12.7713 -4.97451
LeftShoulder1  0.0094574 -7.83135 -0.417004
LeftArm  36.5435 -3.67454 -74.0097
LeftForeArm  61.1173 -78.2396 -58.7135
LeftHand  0.438467 7.87409 5.98924
HEad  -10.0229 -36.412 10.845
RightUpLeg  -15.1393 -18.2594 -3.06856
RightLeg  13.0051 -0.301393 -0.0484583
RightFoot  10.5728 0.0341016 0.00899528
RightToes  -38.2462 -0.187301 -0.291555
397
root  -4.44706 34.4128 -1.26957 4.04898 62.8365 -3.98189
LeftUpLeg  -11.7695 12.4732 -1.95818
LeftLeg  10.093 8.68361 0.970773
LeftFoot  0.210912 -0.000661084 0.0471689
LeftToes  -8.61887 6.91067e-007 1.07128e-007
Spine  2.71929 4.14661 -2.79364
Spine1  4.86513 8.75684 -5.79429
RightShoulder  0.19022 17.626 -1.14355
RightArm  -25.7263 8.61801 85.4077
RightForeArm  38.4638 -0.12414 -0.0196463
RightHand  0.803231 -14.0155 -6.15467
LeftShoulder1  0.00756685 -7.3732 -1.20209
LeftArm  43.6509 -8.38455 -73.9774
LeftForeArm  92.0164 -79.8493 -84.5072
LeftHand  0.239464 4.78716 5.34635
HEad  -10.1582 -38.67 11.6532
RightUpLeg  -13.6519 -17.0351 -3.54917
RightLeg  11.4164 -2.88772 -0.390448
RightFoot  10.5847 0.0795903 -0.481606
RightToes  -37.6241 -0.1895 -0.293289
398
root  -4.31799 34.4138 -1.06743 4.3581 63.8881 -3.4764
LeftUpLeg  -11.2693 11.7806 -1.89063
LeftLeg  9.96342 8.39052 0.919085
LeftFoot  0.222635 -0.00108809 0.0445048
LeftToes  -9.15712 6.91067e-007 1.07128e-007
Spine  2.52656 3.92387 -2.7613
Spine1  4.56693 8.23849 -5.67879
RightShoulder  0.154509 17.5996 -1.81954
RightArm  -27.7991 7.36546 85.5724
RightForeArm  32.8745 0.757313 0.13964
RightHand  0.921961 -12.6208 -7.94857
LeftShoulder1  0.00662332 -7.36631 -1.74336
LeftArm  46.2541 -12.0824 -74.6244
LeftForeArm  102.641 -79.7216 -100.425
LeftHand  0.28618 5.37427 5.71449
HEad  -10.9623 -40.529 13.0532
RightUpLeg  -12.2455 -16.1939 -3.73989
RightLeg  9.98462 -5.37127 -0.59009
RightFoot  10.1754 0.115585 -0.920582
RightToes  -36.9266 -0.19202 -0.295271
399
root  -4.20215 34.4241 -0.853536 4.27136 64.7461 -3.33656
LeftUpLeg  -10.7787 11.1058 -1.61508
LeftLeg  9.98713 8.30921 0.913696
LeftFoot  0.234956 -0.00146348 0.0461744
LeftToes  -9.6818 6.91067e-007 1.07128e-007
Spine  2.26282 3.58086 -2.63494
Spine1  4.1083 7.51351 -5.42091
RightShoulder  0.133314 17.5972 -2.05333
RightArm  -29.8747 6.04729 85.6953
RightForeArm  28.7862 2.44109 0.437196
RightHand  0.816505 -11.3924 -7.79761
LeftShoulder1  0.00575329 -7.43653 -1.41144
LeftArm  45.6357 -13.0871 -76.2292
LeftForeArm  104.325 -79.5973 -103.689
LeftHand  0.213872 5.41166 4.14775
HEad  -11.162 -42.2011 13.7795
RightUpLeg  -10.9893 -15.1002 -3.81024
RightLeg  8.87647 -7.46839 -0.674038
RightFoot  10.2331 0.151118 -1.30998
RightToes  -37.0636 -0.194376 -0.297121
400
root  -4.09801 34.4354 -0.637592 3.50868 65.0161 -3.57484
LeftUpLeg  -10.0908 10.7908 -1.09499
LeftLeg  10.3583 8.42666 0.981576
LeftFoot  0.0864076 -0.000415916 0.0261194
LeftToes  -10.1985 6.91067e-007 1.07128e-007
Spine  2.16708 3.21896 -2.42384
Spine1  3.94859 6.79203 -5.02288
RightShoulder  0.134048 17.9167 -2.18397
RightArm  -30.1979 5.9283 85.7978
RightForeArm  24.4589 3.309 0.591226
RightHand  0.746941 -10.2459 -7.94203
LeftShoulder1  0.00496233 -7.43178 -0.73535
LeftArm  46.0611 -13.0108 -77.2864
LeftForeArm  105.206 -79.6026 -103.555
LeftHand  0.279517 4.20038 7.2291
HEad  -11.2847 -43.4392 14.038
RightUpLeg  -10.0899 -14.473 -3.75744
RightLeg  9.00992 -8.20466 -0.759267
RightFoot  9.9786 0.155689 -1.40558
RightToes  -37.3593 -0.196084 -0.298456
401
root  -4.01141 34.4627 -0.434831 3.03831 64.5061 -3.69435
LeftUpLeg  -9.53098 10.8106 -0.657668
LeftLeg  10.6786 8.95954 1.09376
LeftFoot  -0.0228955 2.29705e-006 0.0114866
LeftToes  -10.4013 6.91067e-007 1.07128e-007
Spine  2.03488 3.03657 -2.23617
Spine1  3.71953 6.4185 -4.65232
RightShoulder  0.124302 17.8517 -2.46607
RightArm  -30.8386 5.93891 86.4445
RightForeArm  23.3899 5.26257 0.935738
RightHand  0.728595 -10.6991 -7.39454
LeftShoulder1  0.004256 -7.91537 -0.336098
LeftArm  47.3464 -12.3688 -77.5413
LeftForeArm  99.8458 -79.7784 -98.539
LeftHand  0.288438 3.16922 10.0062
HEad  -11.1253 -44.7486 14.0334
RightUpLeg  -9.80958 -14.6017 -3.65267
RightLeg  9.68372 -7.2657 -0.758917
RightFoot  9.61886 0.132217 -1.1937
RightToes  -37.1902 -0.196659 -0.298898
402
root  -3.94696 34.4801 -0.228516 2.54495 63.6512 -3.89362
LeftUpLeg  -9.01395 10.6267 -0.158352
LeftLeg  11.0175 9.98378 1.27732
LeftFoot  -0.136368 -1.29227e-005 -0.00757255
LeftToes  -10.7292 6.91067e-007 1.07128e-007
Spine  1.96198 2.91994 -1.98456
Spine1  3.59831 6.18308 -4.15612
RightShoulder  0.119232 17.6315 -2.50097
RightArm  -29.9082 6.56587 86.854
RightForeArm  22.204 6.72243 1.19473
RightHand  0.682455 -10.263 -7.21394
LeftShoulder1  0.00363989 -8.70839 -0.149914
LeftArm  47.1561 -11.1034 -77.6958
LeftForeArm  79.5543 -79.7922 -81.5426
LeftHand  0.0825041 0.7533 12.0203
HEad  -11.393 -46.0124 14.335
RightUpLeg  -9.73589 -15.3557 -3.40875
RightLeg  10.4803 -5.50441 -0.652893
RightFoot  9.1328 0.0977214 -0.845877
RightToes  -37.0841 -0.195619 -0.298065
403
root  -3.90739 34.4792 -0.0249057 2.41827 62.5348 -3.73297
LeftUpLeg  -8.56692 10.5023 0.180873
LeftLeg  11.4397 11.1722 1.51077
LeftFoot  -0.33058 0.000864571 -0.0485023
LeftToes  -11.0933 6.91067e-007 1.07128e-007
Spine  1.83185 2.77811 -1.77546
Spine1  3.35635 5.89273 -3.7425
RightShoulder  0.112133 16.7905 -2.3724
RightArm  -25.9095 7.45008 87.4959
RightForeArm  20.9335 7.54549 1.34148
RightHand  0.618866 -9.03747 -7.44326
LeftShoulder1  0.00311955 -9.07587 -0.542156
LeftArm  45.8272 -9.52507 -77.4407
LeftForeArm  63.7473 -78.506 -61.0574
LeftHand  -0.346748 -2.80683 13.746
HEad  -11.4196 -47.2363 14.605
RightUpLeg  -9.53396 -15.5108 -3.25632
RightLeg  10.7805 -4.22537 -0.523775
RightFoot  8.55284 0.0728265 -0.5963
RightToes  -36.5041 -0.191176 -0.294535
404
root  -3.88832 34.4727 0.179089 2.53515 61.2467 -3.3224
LeftUpLeg  -8.08235 10.6314 0.400304
LeftLeg  11.7031 12.2879 1.71654
LeftFoot  -0.418159 0.000960386 -0.0750759
LeftToes  -11.6113 6.91067e-007 1.07128e-007
Spine  1.66697 2.62703 -1.64985
Spine1  3.05403 5.56538 -3.47754
RightShoulder  0.0979615 15.9766 -2.54963
RightArm  -22.2875 7.94587 88.4732
RightForeArm  23.0477 8.75487 1.55788
RightHand  0.5237 -7.69213 -7.40178
LeftShoulder1  0.00270056 -9.25299 -0.858646
LeftArm  45.3089 -8.45945 -76.8615
LeftForeArm  55.545 -76.4191 -47.3923
LeftHand  -0.374511 -2.64378 15.7937
HEad  -10.7797 -48.1734 14.5423
RightUpLeg  -8.97246 -14.9694 -3.16349
RightLeg  10.1746 -3.58466 -0.405854
RightFoot  8.13216 0.0607423 -0.476885
RightToes  -35.3167 -0.182193 -0.287168
